<?xml version="1.0" encoding="utf-8"?>
<!-- Generator: Adobe Illustrator 20.1.0, SVG Export Plug-In . SVG Version: 6.00 Build 0)  -->
<svg version="1.1" id="Слой_1" xmlns="http://www.w3.org/2000/svg" xmlns:xlink="http://www.w3.org/1999/xlink" x="0px" y="0px"
	 width="65px" height="65px" viewBox="0 0 65 65" style="enable-background:new 0 0 65 65;" xml:space="preserve">
<g>
	<g>
		<path style="fill:#F2718B;" d="M12.197,16.279h2.053v1.952h3.987v-1.986h-1.948V14.19h1.93v-2.019h-1.939v-2.053h1.946V8.174
			h-4.019v1.943h-2.051V8.188H8.183v1.955h1.946v2.075H8.176v2.017h1.941v2.051h-1.95v1.939h4.028v-1.946H12.197z M12.229,12.207
			h1.948v1.97h-1.948V12.207z M12.133,26.343v-1.919h-1.941v1.919H12.133z M16.201,26.35v-1.939h-1.918v1.939
			C14.284,26.35,16.201,26.35,16.201,26.35z M12.218,43.299c0.854,0.803,1.706,1.609,2.645,2.492
			c-1.809,1.789-3.577,3.541-5.33,5.274c0.451,0.469,0.887,0.923,1.226,1.277c2.268-2.27,4.514-4.516,6.765-6.765
			c-0.361-0.377-0.787-0.823-1.273-1.333c1.961-0.435,3.793-0.841,5.785-1.284c-0.441,1.984-0.852,3.839-1.313,5.91
			c-0.533-0.612-0.944-1.083-1.28-1.468c-3.676,3.676-7.271,7.271-10.833,10.833c0.376,0.401,0.803,0.858,1.307,1.394
			c3.151-3.151,6.267-6.269,9.528-9.532c0.802,0.881,1.591,1.748,2.457,2.699c0.937-4.22,1.842-8.286,2.772-12.476
			c-4.198,0.933-8.271,1.84-12.345,2.744C12.294,43.146,12.256,43.223,12.218,43.299z M26.359,24.417H24.42v1.936h1.939V24.417z
			 M54.79,6.142h-1.936v1.923h1.936V6.142z M8.062,24.433H6.146v1.941h1.916V24.433z M64.251,30.501
			c-0.576-2.214-1.641-4.196-3.004-6.031c-0.184-0.247-0.307-0.607-0.307-0.914c-0.016-6.935-0.034-13.87,0.009-20.805
			C60.956,1.475,60.623,0.531,59.415,0H1.524C0.825,0.318,0.318,0.825,0,1.524V35.04c0.533,1.204,1.472,1.54,2.752,1.533
			c8.289-0.042,16.579-0.022,24.87-0.022h0.773c1.071,8.786,5.81,14.37,14.262,16.889V65h2.031v-7.076h4.063V65h2.031V53.365
			c2.156-0.525,4.164-1.336,5.976-2.575c4.698-3.212,7.43-7.632,8.118-13.298c0.023-0.186,0.083-0.367,0.125-0.551v-2.793
			C64.754,32.933,64.563,31.7,64.251,30.501z M2.055,34.511V2.053h56.808v19.782c-5.823-4.664-12.265-6-19.175-3.098
			c-6.883,2.891-10.479,8.385-11.265,15.775C28.423,34.511,2.055,34.511,2.055,34.511z M48.718,55.828h-4.016v-2.06h4.016
			C48.717,53.768,48.717,55.828,48.718,55.828z M60.398,44.341c-3.952,6.105-11.482,8.9-18.413,6.764
			c-7.309-2.252-11.249-8.829-11.458-14.513h1.995c0.522,4.949,2.893,8.764,7.193,11.292c3.059,1.797,6.388,2.291,9.857,1.58
			c6.941-1.425,11.926-7.986,11.314-14.876h-1.95c0.146,4.644-1.593,8.427-5.469,11.097c-2.382,1.639-5.07,2.311-7.952,2.004
			c-6.607-0.701-10.658-6.195-10.909-11.124h9.019v-2.006h-9.066c0.321-3.21,1.612-5.854,3.925-7.982
			c2.3-2.118,5.048-3.169,8.194-3.248v-1.916c-5.577-0.397-13.515,4.443-14.174,13.083h-2.011c0.168-2.613,0.926-5.001,2.232-7.222
			c5.428-9.237,18.337-10.743,25.704-3.008c0.345,0.363,0.506,0.719,0.5,1.226c-0.025,2.304-0.011,4.606-0.011,6.953h1.986v-4.619
			C63.375,31.664,64.103,38.617,60.398,44.341z M45.756,36.516h1.937v-1.925h-1.937V36.516z M22.4,30.42h3.972v-1.921H22.4V30.42z
			 M20.363,10.111h1.919V8.159h-1.919V10.111z M49.822,36.51h1.928v-1.939h-1.928V36.51z M6.146,30.422h14.125v-1.928H6.146V30.422z
			 M18.341,26.352h1.941v-1.934h-1.941V26.352z"/>
	</g>
</g>
</svg>
