<?xml version="1.0" encoding="utf-8"?>
<!-- Generator: Adobe Illustrator 20.1.0, SVG Export Plug-In . SVG Version: 6.00 Build 0)  -->
<svg version="1.1" id="Слой_1" xmlns="http://www.w3.org/2000/svg" xmlns:xlink="http://www.w3.org/1999/xlink" x="0px" y="0px"
	 width="74.286px" height="65px" viewBox="0 0 74.286 65" style="enable-background:new 0 0 74.286 65;" xml:space="preserve">
<g>
	<g>
		<path style="fill:#5775CF;" d="M20.529,34.82c5.2,3.696,10.387,7.408,15.58,11.115c0.917,0.655,1.157,0.654,2.067,0.004
			c5.171-3.694,10.337-7.397,15.519-11.075c0.619-0.439,0.859-0.942,0.858-1.697c-0.018-10.469-0.018-20.937,0-31.404
			c0-0.722-0.123-1.322-0.724-1.762h-0.872c-0.114,0.076-0.218,0.177-0.343,0.224c-2.568,0.968-5.142,1.921-7.704,2.905
			c-0.419,0.161-0.661,0.049-0.944-0.24C43.01,1.914,42.032,0.961,41.06,0h-7.834c-0.988,0.979-1.964,1.968-2.974,2.921
			c-0.173,0.163-0.538,0.305-0.733,0.235c-2.687-0.982-5.359-2.004-8.033-3.019c-0.06-0.023-0.105-0.09-0.157-0.137h-0.872
			c-0.437,0.394-0.728,0.813-0.726,1.47c0.02,10.613,0.018,21.226,0.004,31.839C19.735,33.99,19.986,34.436,20.529,34.82z
			 M22.042,3.299c0-0.119,0.02-0.238,0.038-0.442c0.39,0.135,0.749,0.253,1.101,0.385c1.741,0.65,3.472,1.329,5.223,1.945
			c0.504,0.177,0.654,0.424,0.636,0.935c-0.038,1.011-0.011,2.026-0.011,3.095h2.298c0-1.168-0.034-2.324,0.02-3.474
			c0.018-0.363,0.193-0.789,0.439-1.054c0.751-0.816,1.446-1.862,2.398-2.266c0.924-0.394,2.152,0.007,3.221-0.137
			c1.973-0.265,3.45,0.356,4.698,1.921c0.562,0.704,0.944,1.3,0.868,2.217c-0.076,0.91-0.016,1.831-0.016,2.824h2.298
			c0-0.977,0.042-1.959-0.014-2.936c-0.038-0.65,0.146-0.973,0.798-1.193c1.804-0.614,3.577-1.318,5.364-1.984
			c0.244-0.09,0.489-0.17,0.805-0.28c0.016,0.307,0.038,0.538,0.038,0.769c0.002,9.622-0.002,19.242,0.011,28.864
			c0,0.439-0.146,0.695-0.498,0.946c-4.707,3.346-9.409,6.699-14.096,10.073c-0.415,0.298-0.672,0.264-1.063-0.018
			c-4.669-3.357-9.351-6.697-14.035-10.032c-0.336-0.24-0.533-0.473-0.533-0.93C22.044,22.782,22.04,13.042,22.042,3.299z
			 M37.095,32.489c5.615,0.014,10.479-4.832,10.481-10.445c0.004-5.57-4.855-10.427-10.427-10.422
			c-5.626,0.005-10.447,4.842-10.44,10.476C26.717,27.632,31.558,32.475,37.095,32.489z M37.362,13.917
			c4.573,0.056,7.957,3.609,7.916,8.318c-0.038,4.516-3.602,7.999-8.136,7.955c-4.74-0.047-8.177-3.53-8.136-8.246
			C29.048,17.274,32.603,13.859,37.362,13.917z M65.045,16.245c1.414,0.009,2.248,0.85,2.288,2.257
			c0.007,0.242,0.002,0.484,0.002,0.726c0,11.122,0,22.243,0,33.365v0.738h2.264c0.013-0.146,0.029-0.242,0.029-0.336
			c0.002-11.485,0.011-22.968-0.005-34.454c-0.004-2.392-2.167-4.539-4.557-4.592c-1.378-0.031-2.755-0.005-4.135-0.005
			c-1.323,0-2.647,0-4.007,0v2.295c0.339,0,0.603,0,0.867,0C60.21,16.237,62.628,16.228,65.045,16.245z M36.965,26.172
			c0.946-0.932,1.88-1.878,2.818-2.815c0.919-0.919,1.842-1.834,2.688-2.679c-0.54-0.596-1.031-1.138-1.598-1.766
			c-1.656,1.661-3.268,3.281-5.039,5.057c-0.813-0.921-1.62-1.834-2.344-2.654c-0.661,0.592-1.195,1.069-1.795,1.605
			c1.13,1.116,2.221,2.205,3.326,3.279C35.71,26.867,36.268,26.856,36.965,26.172z M49.962,48.768v2.291c0.247,0,0.459,0,0.67,0
			c4.254,0,8.508,0,12.76-0.002c1.235,0,1.596-0.361,1.596-1.592c0.002-6.307,0.002-12.615,0.004-18.922
			c0-3.505,0-7.009-0.004-10.512c-0.002-0.861-0.336-1.408-1.015-1.421c-2.336-0.04-4.675-0.014-7.029-0.014v2.307h5.713v27.865
			H49.962z M28.979,51v-2.192h-2.23V51H28.979z M17.348,20.847v-2.266c-2.226,0-4.398-0.002-6.57,0
			c-1.078,0.002-1.481,0.404-1.481,1.49c0,9.811,0,19.625,0.002,29.436c0,1.186,0.368,1.549,1.562,1.549
			c4.277,0.002,8.555,0.002,12.832-0.002c0.208,0,0.417-0.025,0.625-0.038v-2.252H11.642V20.847H17.348z M4.689,53.343h2.262v-0.885
			c0-11.243,0-22.485,0.002-33.728c0-1.679,0.812-2.49,2.49-2.493c1.089-0.002,2.176,0,3.264,0c1.54,0,3.08,0,4.657,0v-2.298
			c-2.667,0-5.252-0.004-7.838,0c-2.73,0.005-4.871,2.149-4.871,4.88c-0.002,11.267,0,22.533,0.004,33.8
			C4.658,52.852,4.678,53.087,4.689,53.343z M72.524,55.714c-8.342,0.02-16.685,0.074-25.027-0.034
			c-1.921-0.025-3.447,0.321-4.575,1.914c-0.282,0.399-0.673,0.466-1.137,0.462c-2.611-0.018-5.229-0.117-7.833,0.033
			c-1.607,0.092-2.8-0.339-3.718-1.627c-0.417-0.585-0.997-0.749-1.704-0.748c-8.947,0.016-17.893,0.02-26.841-0.002
			c-0.708,0-1.264,0.159-1.688,0.728v3.192C1.789,61.421,3.579,63.211,5.368,65h63.55l5.368-5.368V56.44
			C73.845,55.839,73.246,55.712,72.524,55.714z M71.597,59.074c-1.04,1.08-2.093,2.149-3.187,3.172
			c-0.262,0.246-0.702,0.426-1.062,0.428c-19.005,0.02-38.012,0.016-57.018,0.016c-1.089,0-2.177-0.027-3.264,0.009
			c-0.547,0.018-0.946-0.125-1.332-0.533c-0.997-1.054-2.055-2.049-3.059-3.097c-0.222-0.231-0.32-0.58-0.567-1.047h1.139
			c8.221,0,16.443-0.005,24.664,0.018c0.356,0.002,0.847,0.177,1.045,0.442c1.172,1.558,2.665,2.01,4.597,1.903
			c2.99-0.166,5.994-0.054,8.993-0.034c0.601,0.004,1.123-0.126,1.466-0.619c1.031-1.473,2.425-1.775,4.176-1.753
			c7.616,0.096,15.233,0.042,22.851,0.042h1.141C71.926,58.498,71.821,58.843,71.597,59.074z M47.519,51.02v-2.206H45.3v2.206
			H47.519z M42.884,50.998v-2.192h-2.219v2.192H42.884z M33.592,51.023v-2.212h-2.219v2.212H33.592z M36.032,51.002h2.21v-2.215
			h-2.21C36.032,48.786,36.032,51.002,36.032,51.002z"/>
	</g>
</g>
</svg>
