<?xml version="1.0" encoding="utf-8"?>
<!-- Generator: Adobe Illustrator 20.1.0, SVG Export Plug-In . SVG Version: 6.00 Build 0)  -->
<svg version="1.1" id="Слой_1" xmlns="http://www.w3.org/2000/svg" xmlns:xlink="http://www.w3.org/1999/xlink" x="0px" y="0px"
	 width="69.333px" height="65px" viewBox="0 0 69.333 65" style="enable-background:new 0 0 69.333 65;" xml:space="preserve">
<g>
	<g>
		<path style="fill:#FF903E;" d="M34.652,30.324c1.094-0.005,1.818,0.493,2.096,1.455c0.065,0.228,0.108,0.462,0.157,0.668h2.102
			c-0.193-1.84-1.101-3.129-2.717-3.877c-0.457-0.211-0.59-0.448-0.562-0.906c0.034-0.531,0.007-1.067,0.007-1.618h-2.141
			c0,0.636,0.032,1.242-0.018,1.84c-0.018,0.206-0.213,0.433-0.385,0.581c-0.69,0.596-1.546,1.058-2.078,1.764
			c-1.237,1.638-1.029,3.349,0.511,4.7c0.771,0.675,1.685,1.19,2.549,1.755c0.639,0.419,1.322,0.775,1.95,1.206
			c0.56,0.385,0.847,0.928,0.683,1.638c-0.168,0.731-0.558,1.266-1.296,1.517c-1.544,0.522-2.649-0.184-3.109-2.008h-2.004
			c-0.07,1.555,1.033,3.198,2.672,3.905c0.432,0.188,0.563,0.413,0.534,0.854c-0.036,0.551-0.009,1.105-0.009,1.639h2.141
			c0-0.63-0.04-1.217,0.02-1.795c0.023-0.224,0.229-0.468,0.415-0.63c0.672-0.585,1.504-1.035,2.029-1.722
			c1.26-1.656,1.054-3.385-0.518-4.752c-0.773-0.673-1.692-1.179-2.555-1.748c-0.693-0.457-1.425-0.863-2.094-1.351
			c-0.551-0.401-0.652-0.989-0.464-1.641C32.848,30.844,33.56,30.33,34.652,30.324z M28.129,36.767v-2.046h-2.08v2.046
			C26.049,36.767,28.129,36.767,28.129,36.767z M21.712,12.944h25.902v-2.067H21.712V12.944z M43.297,36.767v-2.046h-2.082v2.046
			C41.215,36.767,43.297,36.767,43.297,36.767z M17.346,47.607h2.141v-0.921c0-13.361-0.002-26.722,0.002-40.082
			c0-2.705,1.744-4.447,4.449-4.449c8.779-0.004,17.559-0.002,26.338,0c0.208,0,0.413,0.023,0.729,0.042
			c-1.026,1.329-1.175,2.748-1.174,4.252c0.022,12.886,0.011,25.774,0.011,38.661v2.488h2.145v-0.594c0-8.779,0-17.559,0-26.338
			c0-5.056-0.004-10.111,0.002-15.167c0.002-1.677,0.827-2.835,2.259-3.214c2.389-0.632,4.261,0.805,4.263,3.283
			c0.004,5.664-0.061,11.33,0.025,16.994c0.045,2.943-0.473,5.929,0.477,8.883h-4.778v2.125c2.811,0,5.563,0.002,8.316,0
			c2.642-0.002,4.602-1.972,4.602-4.626c0.002-7.222,0-14.444,0-21.667V6.549H62.9v2.138h2.109c0,1.766,0,3.478,0,5.189
			c0,5.101,0.005,10.201,0,15.302c-0.002,1.477-0.831,2.282-2.27,2.252c-1.349-0.031-2.085-0.867-2.085-2.367
			c0-7.809,0.002-15.618-0.002-23.427c0-2.387-1.475-4.499-3.701-5.31C56.615,0.2,56.268,0.107,55.927,0H23.021
			c-0.056,0.034-0.11,0.087-0.172,0.103c-3.58,0.879-5.507,3.324-5.507,7.004c0,13.247,0.002,26.497,0.002,39.744v0.757H17.346z
			 M64.946,54.107V35.786h-2.048v18.321H64.946z M47.631,19.565H21.728v2.048h25.902V19.565z M6.491,53.042
			c0-10.178,0.027-20.354-0.023-30.532c-0.011-2.293,0.664-3.147,3.078-3.037c1.643,0.076,3.293,0.014,4.942,0.014h0.621v-2.141
			c-2.098,0-4.149-0.004-6.2,0c-2.575,0.005-4.561,1.973-4.561,4.532C4.344,32.393,4.346,42.909,4.346,53.425v0.704h2.145V53.042z
			 M15.114,23.806v-2.094H8.728v30.236h51.893V35.811h-2.134v13.995H10.853v-26H15.114z M44.429,56.303
			c-1.845-0.02-3.328,0.265-4.438,1.822c-0.164,0.231-0.608,0.365-0.926,0.368c-2.369,0.031-4.745-0.094-7.103,0.056
			c-1.656,0.105-2.938-0.291-3.884-1.656c-0.334-0.48-0.789-0.56-1.345-0.56c-8.912,0.013-17.823,0.004-26.733,0v3.792
			c0.489,0.451,0.997,0.887,1.464,1.361C2.611,62.647,3.739,63.828,4.875,65h59.583c0.706-0.744,1.397-1.504,2.123-2.228
			c0.901-0.897,1.833-1.766,2.752-2.647v-3.792C61.031,56.337,52.729,56.397,44.429,56.303z M66.84,59.462
			c-0.968,1.009-1.952,2.006-2.972,2.961c-0.246,0.229-0.654,0.404-0.986,0.406c-11.032,0.02-22.064,0.016-33.096,0.016
			c-7.739,0-15.475-0.005-23.214,0.011c-0.516,0.002-0.879-0.148-1.233-0.52c-0.917-0.964-1.887-1.878-2.806-2.84
			c-0.22-0.229-0.325-0.569-0.565-1.009h0.946c7.693,0,15.385,0.004,23.079-0.011c0.469,0,0.843,0.094,1.11,0.477
			c1.011,1.446,2.378,1.829,4.118,1.742c2.903-0.144,5.819-0.027,8.728-0.06c0.332-0.004,0.789-0.168,0.971-0.417
			c1.076-1.466,2.472-1.8,4.257-1.775c7.105,0.105,14.212,0.043,21.318,0.043h0.861C67.136,58.921,67.046,59.247,66.84,59.462z
			 M21.703,17.268h25.903v-2.047H21.703V17.268z M37.964,6.554v2.047h2.084V6.554H37.964z M33.614,6.56v2.058h2.071V6.56H33.614z
			 M29.311,6.545v2.066h2.055V6.545H29.311z"/>
	</g>
</g>
</svg>
