<?xml version="1.0" encoding="utf-8"?>
<!-- Generator: Adobe Illustrator 20.1.0, SVG Export Plug-In . SVG Version: 6.00 Build 0)  -->
<svg version="1.1" id="Слой_1" xmlns="http://www.w3.org/2000/svg" xmlns:xlink="http://www.w3.org/1999/xlink" x="0px" y="0px"
	 width="69.332px" height="65px" viewBox="0 0 69.332 65" style="enable-background:new 0 0 69.332 65;" xml:space="preserve">
<g>
	<g>
		<path style="fill:#FF903E;" d="M27.084,65h2.166v-2.114h-2.166V65z M31.486,60.608h2.044v-2.069h-2.044V60.608z M18.47,49.892
			v2.069h2.048v-2.069H18.47z M22.8,60.599h2.056v-2.069H22.8V60.599z M24.861,49.884h-2.067v2.07h2.067V49.884z M31.416,65h2.166
			v-2.114h-2.166V65z M31.481,56.274h2.049v-2.07h-2.049V56.274z M18.45,56.282h2.087v-2.051H18.45V56.282z M27.144,60.611h2.07
			v-2.044h-2.07V60.611z M29.219,54.215h-2.07v2.059h2.07V54.215z M27.136,51.961h2.046v-2.07h-2.046V51.961z M22.804,56.285h2.07
			v-2.059h-2.07V56.285z M1.139,51.951h2.046V49.87H1.139V51.951z M2.114,16.25H0v2.166h2.114V16.25z M65,0h-2.166v2.114H65V0z
			 M6.435,16.286H4.388v2.083h2.047V16.286z M5.471,51.951h2.046V49.87H5.471V51.951z M9.787,51.945h2.08v-2.046h-2.08V51.945z
			 M14.144,51.969h2.057v-2.07h-2.057V51.969z M14.149,56.274h2.048v-2.069h-2.048V56.274z M9.781,56.284h2.069v-2.057H9.781V56.284
			z M18.479,60.611h2.054v-2.065h-2.054V60.611z M57.471,56.284h2.069v-2.057h-2.069V56.284z M31.46,51.94h2.07v-2.059h-2.07V51.94z
			 M48.786,51.945h2.082v-2.046h-2.082V51.945z M48.781,54.228v2.057h2.069v-2.057H48.781z M48.781,60.617h2.069V58.56h-2.069
			V60.617z M53.139,49.87v2.082h2.044V49.87H53.139z M61.796,51.942h2.069v-2.062h-2.069V51.942z M55.788,29.788
			c-2.077-4.297-3.999-8.668-5.965-13.016c-1.625-3.594-3.2-7.22-5.502-10.445c-1.042-1.458-2.277-2.776-3.403-4.131h19.749V0H33.99
			c-0.847,0.211-1.722,0.343-2.535,0.647c-2.572,0.96-4.392,2.858-5.978,5.007c-2.264,3.065-3.885,6.487-5.426,9.948
			c-0.226,0.507-0.488,0.678-1.043,0.673c-3.404-0.029-6.81-0.015-10.272-0.015v2.127h9.932c0.013,0.117,0.044,0.188,0.023,0.237
			c-2.082,4.816-4.067,9.68-6.838,14.163c-1.454,2.353-3.118,4.537-5.374,6.196C4.553,40.399,2.413,41.189,0,41.166v2.166
			c0.691-0.05,1.381-0.101,2.125-0.154V45.5H0v2.166c0.18-0.003,0.361-0.011,0.541-0.011c13.957,0,27.914-0.002,41.871,0
			c8.973,0.002,17.948,0.008,26.921,0.011V45.5h-2.127v-2.312c0.717,0.049,1.422,0.097,2.127,0.146v-2.166
			c-3.058,0.021-5.59-1.224-7.781-3.26C59.07,35.602,57.244,32.801,55.788,29.788z M6.489,45.464H4.324
			c0-0.892-0.005-1.786,0.007-2.678c0.002-0.094,0.063-0.236,0.14-0.273c0.658-0.32,1.324-0.621,2.02-0.943v3.894H6.489z
			 M10.819,45.466H8.655c0-1.098,0.08-2.2-0.02-3.284C8.5,40.711,8.734,39.46,10.06,38.589c0.255-0.167,0.436-0.448,0.757-0.793
			v7.67H10.819z M15.122,45.485h-2.135c0-0.252,0-0.491,0-0.728c0-3.11-0.007-6.22,0.015-9.332c0.002-0.314,0.112-0.661,0.27-0.936
			c0.572-0.991,1.188-1.958,1.849-3.039v14.035H15.122z M19.489,45.463h-2.127c-0.013-0.192-0.036-0.385-0.036-0.58
			c-0.003-5.795-0.003-11.59-0.002-17.384c0-0.2-0.015-0.423,0.063-0.596c0.653-1.477,1.326-2.948,1.992-4.418
			c0.036,0.007,0.073,0.013,0.109,0.021C19.489,22.505,19.489,45.463,19.489,45.463z M33.564,45.466H21.687
			c-0.011-0.216-0.031-0.434-0.031-0.652c-0.002-9.046-0.002-18.094,0.003-27.141c0-0.24,0.021-0.504,0.117-0.718
			c1.402-3.177,2.85-6.331,4.782-9.232c1.056-1.586,2.252-3.05,3.83-4.157c0.947-0.663,1.969-1.15,3.177-1.297v43.196H33.564z
			 M47.637,45.463H35.787V2.108c0.941,0.401,1.836,0.689,2.637,1.144c1.641,0.929,2.849,2.342,3.923,3.863
			c2.171,3.075,3.72,6.481,5.232,9.904c0.07,0.158,0.093,0.348,0.093,0.522c0.005,9.227,0.003,18.453,0.002,27.679
			C47.674,45.284,47.655,45.349,47.637,45.463z M52.013,44.821v0.665h-2.148V22.506c0.029-0.015,0.06-0.029,0.089-0.042
			c0.338,0.765,0.616,1.565,1.027,2.288c0.864,1.519,1.079,3.12,1.055,4.854C51.963,34.676,52.011,39.749,52.013,44.821z
			 M56.297,45.467h-2.099V31.445c0.722,1.168,1.375,2.217,2.013,3.274c0.086,0.145,0.128,0.336,0.128,0.507
			c0.007,3.334,0.003,6.669,0,10.005C56.34,45.297,56.318,45.36,56.297,45.467z M58.518,45.466V37.7
			c0.777,0.814,1.425,1.489,2.062,2.171c0.065,0.07,0.102,0.192,0.102,0.289c0.007,1.753,0.005,3.507,0.005,5.306H58.518z
			 M62.866,41.584c0.658,0.304,1.308,0.59,1.942,0.908c0.104,0.052,0.192,0.242,0.195,0.37c0.016,0.853,0.008,1.705,0.008,2.623
			h-2.145V41.584z M57.478,49.901v2.069h2.057v-2.069H57.478z M67.166,0v2.166h2.166V0H67.166z M66.138,51.953h2.07v-2.059h-2.07
			V51.953z M44.465,60.624h2.06v-2.07h-2.06V60.624z M53.126,56.274h2.07v-2.061h-2.07V56.274z M35.787,60.603h2.07v-2.049h-2.07
			V60.603z M37.861,56.27v-2.069h-2.043v2.069H37.861z M35.75,65h2.166v-2.114H35.75V65z M40.084,65h2.166v-2.114h-2.166V65z
			 M37.869,49.876H35.81v2.07h2.059V49.876z M40.144,49.876v2.069h2.057v-2.069H40.144z M46.521,49.891h-2.07v2.064h2.07V49.891z
			 M40.118,56.28h2.085v-2.047h-2.085V56.28z M42.193,60.621v-2.07h-2.065v2.07H42.193z M46.516,56.295v-2.07H44.47v2.07H46.516z"/>
	</g>
</g>
</svg>
