<?xml version="1.0" encoding="utf-8"?>
<!-- Generator: Adobe Illustrator 20.1.0, SVG Export Plug-In . SVG Version: 6.00 Build 0)  -->
<svg version="1.1" id="Слой_1" xmlns="http://www.w3.org/2000/svg" xmlns:xlink="http://www.w3.org/1999/xlink" x="0px" y="0px"
	 width="70.002px" height="70px" viewBox="0 0 70.002 70" style="enable-background:new 0 0 70.002 70;" xml:space="preserve">
<g>
	<g>
		<path style="fill:#16BF86;" d="M63.613,32.969c0.572-0.037,1.24-0.08,1.9-0.123c0.193-2.162-1.127-7.449-2.7-10.719
			c-3.44-7.15-8.839-12.285-16.275-15.557c5.255,0.017,10.295,0.032,15.509,0.048c-0.853,0.837-1.6,1.562-2.337,2.298
			c-0.59,0.59-0.657,1.198-0.203,1.683c0.475,0.51,1.113,0.463,1.733-0.147c1.383-1.36,2.763-2.723,4.14-4.092
			c0.57-0.567,0.57-1.16-0.002-1.732c-1.543-1.545-3.093-3.085-4.642-4.625C60.461,0.002,60.186,0.002,59.913,0
			c-0.912,0.847-0.918,1.297-0.03,2.195c0.337,0.34,0.678,0.677,1.013,1.022c0.35,0.36,0.695,0.725,1.158,1.21
			C53.693,4.4,45.529,4.375,37.326,4.348c-0.002,0.765-0.005,1.478-0.007,2.06C52.626,8.847,61.331,17.647,63.613,32.969z
			 M4.402,4.232c-0.025,8.177-0.05,20.237-0.077,28.437c0.782,0.002,1.48,0.005,2.082,0.007C8.827,17.42,17.604,8.7,32.921,6.388
			c-0.035-0.567-0.075-1.235-0.125-2.058C20.45,5.78,11.842,12.17,6.58,23.289C6.597,18.194,6.612,9.269,6.628,4.03
			c0.883,0.917,1.623,1.722,2.405,2.485c0.62,0.605,1.423,0.495,1.782-0.198c0.292-0.565,0.068-1.008-0.332-1.413
			C9.135,3.538,7.79,2.172,6.44,0.81C5.827,0.192,5.22,0.18,4.593,0.8c-1.537,1.522-3.062,3.055-4.59,4.583
			C0.002,5.658,0.002,5.932,0,6.207c0.848,0.905,1.313,0.918,2.197,0.022C2.877,5.535,3.532,4.817,4.2,4.11
			C4.267,4.15,4.335,4.192,4.402,4.232z M67.807,63.755c-0.373,0.37-0.742,0.743-1.118,1.11c-0.327,0.318-0.66,0.632-1.113,1.065
			c0.027-8.364,0.052-20.4,0.078-28.589c-0.767-0.002-1.48-0.005-2.065-0.007c-2.427,15.244-11.187,23.944-26.432,26.267
			c0.045,0.578,0.097,1.25,0.158,2.063c12.282-1.48,20.86-7.88,26.122-18.997c-0.017,5.123-0.032,14.039-0.048,19.284
			c-0.86-0.883-1.593-1.653-2.342-2.405c-0.573-0.575-1.217-0.613-1.683-0.132c-0.45,0.465-0.415,1.087,0.127,1.637
			c1.362,1.383,2.727,2.762,4.103,4.128c0.647,0.643,1.178,0.638,1.833-0.007c1.253-1.232,2.5-2.472,3.738-3.718
			c0.302-0.305,0.558-0.655,0.837-0.985v-0.685C69.147,62.873,68.702,62.866,67.807,63.755z M6.393,37.111
			c-0.598,0.053-1.268,0.113-1.977,0.178c0.317,4.245,1.448,8.185,3.408,11.875c3.45,6.492,8.579,11.2,15.464,14.264
			c-5.192-0.017-10.184-0.032-15.35-0.048c0.86-0.84,1.612-1.563,2.35-2.3c0.597-0.595,0.66-1.193,0.203-1.683
			c-0.473-0.507-1.118-0.457-1.733,0.148c-1.383,1.36-2.763,2.725-4.14,4.093c-0.565,0.562-0.562,1.165,0.007,1.733
			c1.545,1.545,3.095,3.085,4.642,4.627C9.495,69.998,9.724,70,9.952,70c1.017-0.652,1.082-1.267,0.227-2.135
			C9.987,67.67,9.792,67.477,9.6,67.282c-0.513-0.523-1.025-1.047-1.667-1.702c8.375,0.027,16.539,0.052,24.766,0.078
			c0.002-0.392,0.002-0.728,0.003-1.065c0.002-0.355,0.002-0.71,0.003-0.917C17.369,61.235,8.697,52.391,6.393,37.111z
			 M61.296,35.087c0.068-14.315-11.84-26.321-26.174-26.386C20.75,8.639,8.777,20.517,8.702,34.912
			C8.629,49.194,20.514,61.206,34.807,61.296C49.22,61.386,61.228,49.505,61.296,35.087z M35.028,59.13
			c-13.507,0.015-24.132-10.625-24.154-24.187c-0.023-13.344,10.64-24.037,23.996-24.069c13.55-0.033,24.229,10.567,24.261,24.081
			C59.16,48.423,48.501,59.115,35.028,59.13z M46.448,39.499c-2.21-1.228-4.397-2.5-6.633-3.782c1.645-2.908,1.98-4.497,1.62-7.525
			c-0.328-2.755-1.858-4.54-4.452-5.035c-0.93-0.177-1.912-0.222-2.858-0.158c-2.5,0.168-4.428,1.228-5.233,3.77
			c-0.447,1.408-0.548,2.863-0.395,4.332c0.172,1.658,0.742,3.177,1.712,4.595c-0.268,0.157-0.48,0.283-0.693,0.407
			c-2.02,1.153-4.035,2.315-6.065,3.453c-0.358,0.202-0.527,0.415-0.505,0.847c0.04,0.773-0.01,1.553,0.015,2.328
			c0.047,1.357,0.543,2.53,1.513,3.49c0.558,0.553,1.222,0.835,2.028,0.833c5.662-0.01,11.324-0.012,16.985,0
			c0.833,0.002,1.592-0.238,2.06-0.885c0.548-0.76,1.105-1.598,1.328-2.485c0.252-0.993,0.108-2.082,0.187-3.127
			C47.099,40.029,46.909,39.756,46.448,39.499z M30.991,27.029c0.233-0.85,0.875-1.382,1.715-1.62c1.455-0.41,2.927-0.4,4.393-0.057
			c1.33,0.312,1.955,1.257,2.148,2.532c0.098,0.652,0.13,1.313,0.192,1.97c-0.022,1.388-0.207,2.737-0.865,3.975
			c-0.75,1.415-1.89,2.26-3.542,2.273c-1.652,0.013-2.847-0.79-3.568-2.22C30.354,31.681,30.351,29.361,30.991,27.029z
			 M44.696,43.894c-0.11,0.665-0.563,1.008-1.327,0.998c-2.807-0.035-5.613-0.013-8.419-0.013c-2.76-0.002-5.522,0-8.282-0.002
			c-0.867,0-1.243-0.232-1.388-1.078c-0.137-0.802-0.128-1.63-0.138-2.448c-0.002-0.148,0.185-0.352,0.338-0.44
			c1.992-1.153,3.99-2.298,6-3.42c0.175-0.097,0.495-0.1,0.668-0.005c1.893,1.055,3.77,1.058,5.672,0.02
			c0.19-0.105,0.538-0.105,0.728,0c1.992,1.108,3.968,2.245,5.94,3.387c0.157,0.092,0.372,0.28,0.368,0.42
			C44.841,42.174,44.836,43.048,44.696,43.894z"/>
	</g>
</g>
</svg>
