<?xml version="1.0" encoding="utf-8"?>
<!-- Generator: Adobe Illustrator 20.1.0, SVG Export Plug-In . SVG Version: 6.00 Build 0)  -->
<svg version="1.1" id="Слой_1" xmlns="http://www.w3.org/2000/svg" xmlns:xlink="http://www.w3.org/1999/xlink" x="0px" y="0px"
	 width="60.829px" height="65px" viewBox="0 0 60.829 65" style="enable-background:new 0 0 60.829 65;" xml:space="preserve">
<g>
	<g>
		<path style="fill:#5775CF;" d="M17.195,31.428h1.939v-1.927h-1.939V31.428z M27.257,29.501H25.32v1.926h1.937V29.501z
			 M60.827,12.188v-7.49c-0.385-0.527-0.91-0.645-1.541-0.637c-2.156,0.029-4.314,0.011-6.523,0.011v2h4.332
			c-2.02,2.018-4.054,4.051-6.113,6.109c-2.477-2.303-5.381-4.249-8.64-5.639c-1.141-0.486-2.322-0.879-3.547-1.337
			c-0.205,0.7-0.382,1.302-0.525,1.789c2.059,0.928,4.105,1.766,6.073,2.763c1.984,1.004,3.749,2.356,5.407,3.915
			c-0.535,0.494-1.04,0.96-1.513,1.396c-1.316-0.957-2.62-2.002-4.017-2.902c-3.153-2.031-6.616-3.273-10.335-3.77
			c-0.371-0.049-0.535-0.161-0.496-0.543c0.024-0.224,0.005-0.455,0.005-0.756c0.665,0,1.272,0.007,1.88-0.002
			c0.791-0.011,1.16-0.379,1.165-1.175c0.008-1.565-0.016-3.131,0.015-4.696C36.463,0.67,36.175,0.332,35.816,0H24.897
			c-0.528,0.384-0.65,0.907-0.634,1.541c0.036,1.438,0.008,2.876,0.011,4.316c0.002,0.868,0.362,1.232,1.23,1.243
			c0.587,0.007,1.173,0.002,1.817,0.002c0,0.293-0.018,0.522,0.005,0.748c0.037,0.379-0.124,0.497-0.494,0.548
			C15.428,9.95,6.209,18.927,4.324,30.296c-2.153,12.989,5.94,25.783,18.595,29.537c14.861,4.407,30.171-5.06,33.263-20.025
			c1.74-8.423-0.421-15.953-5.953-22.521c-0.137-0.161-0.28-0.319-0.416-0.478c-0.028-0.031-0.046-0.072-0.205-0.247
			c0.518-0.476,1.037-0.954,1.555-1.432c7.274,7.448,10.267,20.191,4.963,31.557c-5.353,11.468-17.159,17.445-29.007,16.12
			c-13.005-1.454-23.067-11.33-24.905-24.06c-1.012-7.017,0.322-13.608,4.163-19.603s9.285-9.903,16.106-11.98
			c-0.184-0.637-0.358-1.24-0.543-1.888c-2.238,0.609-4.34,1.438-6.269,2.62c-1.924,1.177-3.759,2.498-5.676,3.785
			c-0.403-0.434-0.915-0.986-1.492-1.607c0.306-0.306,0.673-0.673,1.037-1.043c0.658-0.671,0.666-1.133,0.018-1.789
			C8.665,6.338,7.768,5.439,6.866,4.547c-0.66-0.653-1.12-0.648-1.788,0.015c-1.23,1.224-2.457,2.451-3.679,3.681
			C0.738,8.907,0.738,9.367,1.391,10.03c0.889,0.907,1.783,1.807,2.676,2.707c0.598,0.603,1.147,0.614,1.753,0.005
			c0.371-0.372,0.704-0.782,1.035-1.157c0.626,0.634,1.152,1.167,1.63,1.651c-1.118,1.443-2.35,2.871-3.401,4.42
			c-2.99,4.41-4.691,9.29-5.085,14.616c-0.015,0.205-0.073,0.406-0.112,0.609v3.427c0.12,0.895,0.221,1.792,0.362,2.683
			c1.261,7.925,5.065,14.382,11.309,19.39c4.613,3.702,9.906,5.806,15.781,6.46c0.414,0.046,0.827,0.106,1.24,0.159h3.556
			c0.894-0.12,1.789-0.232,2.683-0.362C47.617,62.766,58.1,52.562,60.325,39.802c0.202-1.159,0.338-2.329,0.504-3.492v-3.427
			c-0.159-1.188-0.28-2.382-0.488-3.56c-1.029-5.85-3.601-10.943-7.576-15.34c-0.057-0.062-0.106-0.13-0.107-0.13
			c2.048-2.051,4.082-4.087,6.123-6.131v4.467H60.827z M26.326,5.088V2.062h8.081V5.09c-0.616,0-1.219-0.007-1.822,0.002
			c-0.832,0.011-1.188,0.367-1.199,1.201c-0.008,0.588-0.002,1.177-0.002,1.809h-2.052c0-0.596,0.005-1.201-0.002-1.805
			c-0.007-0.822-0.375-1.194-1.198-1.207C27.544,5.082,26.956,5.088,26.326,5.088z M48.524,50.924
			c-8.816,9.94-25.008,10.716-34.737,1.604C3.653,43.038,3.315,26.972,13.06,17.238c9.706-9.693,25.068-8.988,33.724-0.78
			c-0.977,0.97-1.955,1.944-2.975,2.958c-2.566-2.264-5.584-3.892-9.034-4.68c-1.758-0.401-3.539-0.566-5.415-0.488v19.245H12.045
			c0.803-8.057,4.981-13.449,12.464-16.366c-0.013-0.091-0.015-0.176-0.041-0.254c-0.166-0.499-0.338-0.996-0.543-1.599
			c-3.512,1.188-6.44,3.177-8.829,5.948c-3.52,4.084-5.181,8.837-5.034,14.31h0.774c6.136,0,12.271,0.007,18.407-0.011
			c0.512-0.002,0.858,0.156,1.211,0.512c2.935,2.959,5.888,5.902,8.835,8.848c0.148,0.148,0.304,0.289,0.502,0.478
			c0.473-0.479,0.9-0.915,1.337-1.357c-3.125-3.107-6.25-6.216-9.313-9.261c4.175-4.175,8.236-8.236,12.357-12.355
			c4.259,5.186,5.563,11.119,3.638,17.656c-2.026,6.882-8.202,12.027-15.126,12.625c-9.594,0.827-16.055-3.513-19.806-12.313
			c-0.538,0.182-1.128,0.382-1.708,0.58c0.936,5.632,8.145,12.014,15.186,13.491c8.12,1.705,16.523-1.947,21.166-9.191
			c4.401-6.866,4.535-16.735-2.152-24.301c0.481-0.483,0.975-0.964,1.453-1.461c0.483-0.501,0.951-1.016,1.427-1.524
			C55.949,25.819,57.668,40.613,48.524,50.924z M42.496,20.75c-3.726,3.726-7.42,7.422-11.097,11.101V16.272
			C35.649,16.527,39.354,18.017,42.496,20.75z M4.945,10.59c-0.44-0.453-0.946-0.975-1.409-1.451c0.791-0.79,1.636-1.635,2.49-2.488
			C6.507,7.113,7.02,7.605,7.498,8.063C6.627,8.925,5.779,9.765,4.945,10.59z M21.252,31.422h1.942v-1.919h-1.942V31.422z"/>
	</g>
</g>
</svg>
