<?xml version="1.0" encoding="utf-8"?>
<!-- Generator: Adobe Illustrator 20.1.0, SVG Export Plug-In . SVG Version: 6.00 Build 0)  -->
<svg version="1.1" id="Слой_1" xmlns="http://www.w3.org/2000/svg" xmlns:xlink="http://www.w3.org/1999/xlink" x="0px" y="0px"
	 width="70.4px" height="55px" viewBox="0 0 70.4 55" style="enable-background:new 0 0 70.4 55;" xml:space="preserve">
<g>
	<path style="fill:#F2718B;" d="M70.202,18.671c-0.605-1.92-2.38-3.247-4.385-3.247c-16.772-0.003-33.543-0.005-50.316,0
		c-2.413,0-4.476,2.063-4.477,4.476c-0.007,10.173-0.002,20.347-0.005,30.52c0,1.078,0.358,2.011,1.017,2.85
		c0.727,0.928,1.729,1.394,2.814,1.731c17.234,0,34.466,0,51.7,0c1.186-0.347,2.274-0.877,2.958-1.946
		c0.375-0.586,0.6-1.267,0.892-1.904c0-10.634,0-21.266,0-31.9C70.335,19.058,70.264,18.865,70.202,18.671z M68.222,30.044
		c0,6.782-0.002,13.564-0.002,20.347c0,1.684-0.746,2.43-2.429,2.43c-8.363,0-16.727,0-25.089,0
		c-8.386,0.002-16.772,0.002-25.157,0.002c-1.588,0-2.365-0.775-2.365-2.36c-0.002-10.036,0-20.072,0-30.107
		c0-0.184,0-0.366,0.003-0.55c0.026-1.423,0.799-2.217,2.221-2.221c5.316-0.01,10.63-0.005,15.947-0.007c11.318,0,22.638,0,33.956,0
		c0.229,0,0.459-0.003,0.688,0c1.416,0.022,2.219,0.81,2.222,2.222C68.226,23.215,68.222,26.629,68.222,30.044z"/>
	<path style="fill:#F2718B;" d="M4.692,37.421c-1.789-0.003-2.513-0.718-2.513-2.489c-0.002-5.522,0-11.043,0-16.565
		c0-0.244,0-0.488,0-0.813c2.246,0,4.407,0,6.547,0c0-0.758,0-1.432,0-2.162c-2.2,0-4.343,0-6.505,0c0-2.956,0-5.852,0-8.759
		c18.351,0,36.661,0,55.029,0c0,2.202,0,4.345,0,6.499c0.734,0,1.406,0,2.131,0c0-0.294,0-0.541,0-0.791
		c0-2.588,0.003-5.179-0.003-7.767c-0.005-2.023-1.368-3.824-3.315-4.402C55.889,0.125,55.72,0.058,55.55,0
		C38.316,0,21.084,0,3.85,0C2.666,0.349,1.573,0.871,0.89,1.944C0.516,2.53,0.292,3.212,0,3.85c0,10.634,0,21.266,0,31.9
		c0.046,0.103,0.105,0.205,0.136,0.311c0.646,2.24,2.341,3.523,4.649,3.517c0.756-0.002,1.513,0.002,2.269,0.002
		c0.562,0,1.126,0,1.672,0c0-0.779,0-1.452,0-2.159C7.346,37.422,6.019,37.424,4.692,37.421z M4.35,2.183
		c2.496-0.015,4.993-0.003,7.49-0.003c14.315,0,28.629-0.002,42.945,0c1.598,0,2.417,0.739,2.401,2.214c-18.343,0-36.635,0-54.924,0
		C2.097,3.121,2.968,2.191,4.35,2.183z"/>
	<path style="fill:#F2718B;" d="M52.743,10.945c0-0.708,0-1.38,0-2.09c-3.64,0-7.245,0-10.887,0c0,0.708,0,1.38,0,2.09
		C45.497,10.945,49.101,10.945,52.743,10.945z"/>
	<path style="fill:#F2718B;" d="M39.545,10.923c0-0.717,0-1.373,0-2.044c-1.457,0-2.879,0-4.266,0c0,0.734,0,1.406,0,2.044
		C36.743,10.923,38.149,10.923,39.545,10.923z"/>
	<path style="fill:#F2718B;" d="M8.723,26.324c0-0.73,0-1.404,0-2.05c-1.461,0-2.867,0-4.273,0c0,0.713,0,1.368,0,2.05
		C5.938,26.324,7.344,26.324,8.723,26.324z"/>
	<path style="fill:#F2718B;" d="M50.289,27.536c-3.035-1.717-6.067-1.457-8.941,0.469c-0.461,0.309-0.717,0.306-1.179,0.005
		c-2.875-1.868-5.897-2.2-8.963-0.531c-3.01,1.638-4.577,4.245-4.813,7.66c0.191,3.493,1.781,6.138,4.838,7.796
		c3.065,1.662,6.091,1.315,8.963-0.562c0.431-0.282,0.682-0.301,1.121-0.003c2.765,1.875,5.698,2.19,8.697,0.643
		c2.994-1.543,4.77-4.046,4.928-7.416C55.107,32.003,53.383,29.286,50.289,27.536z M39.188,40.384
		c-1.858,2.047-6.265,1.88-8.59-0.306c-2.625-2.468-2.724-6.959-0.211-9.544c2.296-2.365,6.695-2.645,8.812-0.535
		C36.824,33.449,36.817,36.926,39.188,40.384z M46.159,41.819c-3.778-0.002-6.588-2.824-6.579-6.609
		c0.009-3.871,2.807-6.641,6.696-6.631c3.764,0.009,6.552,2.841,6.543,6.645C52.81,39.045,50.007,41.821,46.159,41.819z"/>
	<path style="fill:#F2718B;" d="M19.865,36.235c0.718,0,1.39,0,2.088,0c0-0.701,0-1.358,0-2.069c-0.739,0-1.411,0-2.088,0
		C19.865,34.884,19.865,35.556,19.865,36.235z"/>
	<path style="fill:#F2718B;" d="M59.467,36.233c0.718,0,1.392,0,2.088,0c0-0.703,0-1.36,0-2.066c-0.742,0-1.416,0-2.088,0
		C59.467,34.887,59.467,35.559,59.467,36.233z"/>
</g>
</svg>
